<?xml version="1.0" encoding="utf-8"?>
<!-- Generator: Adobe Illustrator 22.1.0, SVG Export Plug-In . SVG Version: 6.00 Build 0)  -->
<svg version="1.1" xmlns="http://www.w3.org/2000/svg" xmlns:xlink="http://www.w3.org/1999/xlink" x="0px" y="0px"
	 viewBox="0 0 48 48" style="enable-background:new 0 0 48 48;" xml:space="preserve">
<style type="text/css">
	.st0{fill:#8A8476;}
	.st1{fill:#746F63;}
	.st2{fill:#FFFFFF;}
	.st3{display:none;}
	.st4{display:inline;fill:none;stroke:#8A8476;stroke-miterlimit:10;}
</style>
<g id="Layer_3">
	<circle class="st0" cx="24" cy="24" r="23"/>
</g>
<g id="Layer_1">
	<path class="st1" d="M46.7,25.4l-5.8-9.2l0,0.1c0,0.2,0,0.3-0.1,0.5c0,0.1-0.1,0.1-0.1,0.2l-0.1,0.1c-0.3,0.2-1.2,1.1-2.5,3
		c-1.2,1.9-3.4,2.7-3.6,2.8l-0.3,0.1v9.4l0.3,0.1c0.3,0.1,0.6,0.4,0.6,0.8v0.9h-7.3v-0.9c0-0.3,0.2-0.6,0.5-0.7l0.1-0.1l0-6.7
		l-3.7,4.5c-0.1,0.2-0.4,0.4-0.7,0.4c-0.4,0-0.7-0.2-0.8-0.4l-3.7-4.4v6.7l0.2,0.1c0.2,0.1,0.4,0.4,0.4,0.7v0.9h-7.3c0,0,0,0,0,0
		l7.7,12.4c1.1,0.2,2.3,0.3,3.4,0.3C36.1,46.8,46,37.3,46.7,25.4z"/>
</g>
<g id="Layer_5">
	<path class="st1" d="M16.5,31.9c0.6-0.9,1.7-1.9,1.3-3c-0.9-3.7,1.8-6.1,4.7-6.1c-2-0.7-3.3-2.4-4.4-4.4c-0.8,0-1.7-0.2-2.4-0.7
		c-0.5-0.3-0.9-0.8-1.4-1.2v0.1H7c0,0,0,0,0,0L16.5,31.9C16.5,31.9,16.5,31.9,16.5,31.9z"/>
</g>
<g id="Layer_2">
	<path class="st2" d="M41,16.3L40.9,16l-0.2-0.1c-0.3-0.1-0.6-0.2-1.1-0.3c-0.9-0.1-1.9-0.2-3.1-0.2c-3.4,0-7.3,0.5-8.1,1.6L24,22.4
		L19.7,17c-0.8-1-4.7-1.6-8.1-1.6c-1.2,0-2.3,0.1-3.1,0.2c-0.5,0.1-0.9,0.2-1.1,0.3C7.2,16,7.1,16.1,7,16.3l0,0.3l0.1,0.2
		c0,0.1,0.1,0.1,0.1,0.2l0.1,0.1c0.3,0.2,1.2,1.1,2.5,3c1.3,2,3.5,2.8,3.6,2.8l0.3,0.1l0,9.4l-0.2,0c-0.4,0.1-0.7,0.4-0.7,0.9v0.9
		h7.3v-0.9c0-0.3-0.2-0.6-0.4-0.7l-0.2-0.1v-6.7l3.7,4.4c0.1,0.2,0.4,0.4,0.8,0.4c0.3,0,0.6-0.2,0.7-0.4l3.7-4.5l0,6.7l-0.1,0.1
		c-0.3,0.1-0.5,0.4-0.5,0.7v0.9h7.3v-0.9c0-0.4-0.3-0.7-0.6-0.8l-0.3-0.1v-9.4l0.3-0.1c0.2-0.1,2.4-0.9,3.6-2.8
		c1.2-1.9,2.2-2.8,2.5-3l0.1-0.1c0,0,0.1-0.1,0.1-0.2C41,16.6,41,16.5,41,16.3z"/>
</g>
<g id="Layer_4" class="st3">
	<circle class="st4" cx="24" cy="24" r="23"/>
</g>
</svg>
